<svg width="60" height="60" viewBox="0 0 60 60" fill="none" xmlns="http://www.w3.org/2000/svg">
<path d="M53.5162 16.7178C55.7371 20.6371 57 25.1748 57 30C57 44.911 44.911 57 30 57C15.0891 57 3 44.911 3 30C3 15.0891 15.0891 3 30 3C34.3897 3 38.5268 4.04516 42.1936 5.90032" stroke="#366BAA" stroke-width="3" stroke-miterlimit="10" stroke-linecap="round" stroke-linejoin="round"/>
<path d="M17 46C19.5059 37.2762 24.6941 30.0925 32 25" stroke="#366BAA" stroke-width="3" stroke-miterlimit="10" stroke-linecap="round" stroke-linejoin="round"/>
<path d="M17.7136 41.834C13.3506 34.1255 14.0138 25.4406 21.4222 19.5479C29.1971 13.364 40.3577 11.6338 50 11C48.2549 11.8565 46.431 15.1369 45.9861 16.0106C42.7399 22.3315 46.0907 29.3548 43.281 35.5816C40.3665 42.0481 31.3874 45.2515 24.6945 43.547" stroke="#366BAA" stroke-width="3" stroke-miterlimit="10" stroke-linecap="round" stroke-linejoin="round"/>
</svg>
