<svg width="60" height="60" viewBox="0 0 60 60" fill="none" xmlns="http://www.w3.org/2000/svg">
<path d="M32 2V8" stroke="#366BAA" stroke-width="3" stroke-miterlimit="10" stroke-linecap="round" stroke-linejoin="round"/>
<path d="M50 9L45 14" stroke="#366BAA" stroke-width="3" stroke-miterlimit="10" stroke-linecap="round" stroke-linejoin="round"/>
<path d="M14 9L19 14" stroke="#366BAA" stroke-width="3" stroke-miterlimit="10" stroke-linecap="round" stroke-linejoin="round"/>
<path d="M24 7L25 10" stroke="#366BAA" stroke-width="3" stroke-miterlimit="10" stroke-linecap="round" stroke-linejoin="round"/>
<path d="M12 19L15 20" stroke="#366BAA" stroke-width="3" stroke-miterlimit="10" stroke-linecap="round" stroke-linejoin="round"/>
<path d="M40 7L39 10" stroke="#366BAA" stroke-width="3" stroke-miterlimit="10" stroke-linecap="round" stroke-linejoin="round"/>
<path d="M52 19L49 20" stroke="#366BAA" stroke-width="3" stroke-miterlimit="10" stroke-linecap="round" stroke-linejoin="round"/>
<path d="M19 22C20.9856 16.7391 26.0515 13 32 13C37.9485 13 43.0226 16.7391 45 22" stroke="#366BAA" stroke-width="3" stroke-miterlimit="10" stroke-linecap="round" stroke-linejoin="round"/>
<path d="M6 43C20.1855 32.8813 37.3468 26.4013 56 25" stroke="#366BAA" stroke-width="3" stroke-miterlimit="10" stroke-linecap="round" stroke-linejoin="round"/>
<path d="M15 52C26.935 41.4387 39.8862 33.7431 56 30" stroke="#366BAA" stroke-width="3" stroke-miterlimit="10" stroke-linecap="round" stroke-linejoin="round"/>
<path d="M6 24C15.0513 24.4805 23.7694 26.2069 32 29" stroke="#366BAA" stroke-width="3" stroke-miterlimit="10" stroke-linecap="round" stroke-linejoin="round"/>
<path d="M57 33C56.8776 35.8013 56.2916 38.6241 55.1943 41.3776C49.8271 54.8461 34.2934 61.4716 20.501 56.1752C11.7679 52.8217 5.82036 45.4852 4 37.1393" stroke="#366BAA" stroke-width="3" stroke-miterlimit="10" stroke-linecap="round" stroke-linejoin="round"/>
</svg>
