<svg width="60" height="60" viewBox="0 0 60 60" fill="none" xmlns="http://www.w3.org/2000/svg">
<path d="M53 6V15H44" stroke="#366BAA" stroke-width="3" stroke-miterlimit="10" stroke-linecap="round" stroke-linejoin="round"/>
<path d="M7 53V45H16" stroke="#366BAA" stroke-width="3" stroke-miterlimit="10" stroke-linecap="round" stroke-linejoin="round"/>
<path d="M55.5508 21C56.4906 23.7571 57 26.7073 57 29.7805C57 44.8127 44.8096 57 29.7736 57C20.2531 57 11.8657 52.1093 7 44.7073" stroke="#366BAA" stroke-width="3" stroke-miterlimit="10" stroke-linecap="round" stroke-linejoin="round"/>
<path d="M4.43761 39C3.50536 36.243 3 33.2927 3 30.2196C3 15.1874 15.0932 3 30.0093 3C39.0791 3 47.1034 7.50439 52 14.4147" stroke="#366BAA" stroke-width="3" stroke-miterlimit="10" stroke-linecap="round" stroke-linejoin="round"/>
<path d="M40 35.0029C40 40.5265 35.5251 45 30 45C24.4749 45 20 40.5265 20 35.0029C20 29.0029 28.0053 21 30 15C32.0035 21 40 29.0029 40 35.0029Z" stroke="#366BAA" stroke-width="3" stroke-miterlimit="10" stroke-linecap="round" stroke-linejoin="round"/>
<path d="M30 40C27.2399 40 25 37.7602 25 35" stroke="#366BAA" stroke-width="3" stroke-miterlimit="10" stroke-linecap="round" stroke-linejoin="round"/>
</svg>
