<svg width="135" height="26" viewBox="0 0 135 26" fill="none" xmlns="http://www.w3.org/2000/svg">
<g clip-path="url(#clip0_206_257)">
<path d="M42.282 25.3908C40.8838 25.389 39.5433 24.7809 38.5547 23.6997C37.566 22.6186 37.0099 21.1527 37.0083 19.6237V6.26711C37.0083 4.73757 37.5639 3.27069 38.5529 2.18915C39.5419 1.1076 40.8833 0.5 42.282 0.5C43.6806 0.5 45.022 1.1076 46.011 2.18915C47 3.27069 47.5556 4.73757 47.5556 6.26711V19.6237C47.554 21.1527 46.9979 22.6186 46.0093 23.6997C45.0206 24.7809 43.6801 25.389 42.282 25.3908ZM42.282 2.73684C41.4261 2.73789 40.6055 3.11016 40.0003 3.77199C39.3951 4.43381 39.0547 5.33114 39.0538 6.26711V19.6237C39.0538 20.56 39.3939 21.4579 39.9992 22.12C40.6047 22.782 41.4258 23.1539 42.282 23.1539C43.1381 23.1539 43.9592 22.782 44.5647 22.12C45.1701 21.4579 45.5102 20.56 45.5102 19.6237V6.26711C45.5089 5.33124 45.1684 4.43409 44.5633 3.77233C43.9581 3.11057 43.1378 2.7382 42.282 2.73684ZM132.651 1.28947L124.47 21.45L116.338 1.29079H113.913L123.31 24.4026H125.524L134.923 1.29079L132.651 1.28947Z" fill="#00A8E2"/>
<path d="M14.2508 3.40401C15.7804 4.81191 16.5453 6.74875 16.5453 9.21454C16.5453 11.6803 15.7804 13.6102 14.2508 15.004C12.7203 16.4014 10.6066 17.1001 7.90989 17.1001H2.23436V24.3974H0V1.29086H7.90989C10.6075 1.29086 12.7212 1.9952 14.2508 3.40401ZM12.6505 13.458C13.7575 12.4553 14.311 11.0409 14.311 9.21454C14.311 7.34349 13.7575 5.90704 12.6505 4.90533C11.5436 3.90362 9.94332 3.40309 7.84973 3.40401H2.23436V14.9593H7.84973C9.94332 14.9593 11.5436 14.4589 12.6505 13.458ZM32.9041 24.4027L28.0733 16.9738C27.5139 17.0403 26.9515 17.0732 26.3888 17.0724H20.706V24.4027H18.4717V1.29086H26.3828C29.0795 1.29086 31.1928 1.9952 32.7225 3.40401C34.2521 4.81283 35.017 6.74967 35.017 9.21454C35.017 11.0198 34.5995 12.5439 33.7644 13.7869C32.9294 15.0299 31.735 15.9273 30.1813 16.479L35.3551 24.4027H32.9041ZM31.1222 13.4738C32.2291 12.4623 32.7826 11.0426 32.7826 9.21454C32.7826 7.34349 32.2291 5.90704 31.1222 4.90533C30.0152 3.90362 28.415 3.40309 26.3214 3.40401H20.706V14.9922H26.3214C28.415 14.9922 30.0152 14.486 31.1222 13.4738ZM51.4023 24.0001C52.4408 24.5752 53.5904 24.8694 54.7544 24.858C56.7863 24.858 58.3211 24.2474 59.3591 23.0264C60.3971 21.8053 60.9152 19.9839 60.9136 17.5619V1.29086H50.258V3.40401H58.7094V17.6659C58.7094 21.0563 57.4011 22.7514 54.7845 22.7514C52.9123 22.7514 51.3927 21.8049 50.2255 19.9119L48.902 21.5619C49.528 22.6012 50.3916 23.4435 51.4071 24.0053L51.4023 24.0001ZM65.3956 22.2948V13.7053H76.3255V11.6251H65.3908V3.40401H77.6491V1.29086H63.1564V24.4027H78.1015V22.2895L65.3956 22.2948ZM104.588 24.408H106.822V3.40401H113.528L112.685 1.29086H97.1639V3.40401H104.591L104.588 24.408ZM96.6862 16.9619C95.834 18.9081 94.4023 20.4798 92.6259 21.4191C90.8495 22.3587 88.8339 22.6102 86.9097 22.1324C84.9855 21.6545 83.2669 20.4757 82.0359 18.7893C81.2709 17.7414 80.717 16.5287 80.4105 15.2304C80.104 13.9322 80.0519 12.5778 80.2574 11.256C80.463 9.93412 80.9216 8.67471 81.6033 7.56023C82.2849 6.44575 83.1743 5.50136 84.2129 4.78894C85.2516 4.07652 86.4163 3.61215 87.6305 3.42626C88.8447 3.24037 90.0812 3.33716 91.2589 3.71028C92.4365 4.08339 93.5288 4.72442 94.4641 5.59135C95.3994 6.45829 96.1567 7.53157 96.6862 8.74086H98.9098C98.0287 6.15972 96.3465 3.99906 94.157 2.63621C91.9674 1.27336 89.4097 0.79493 86.9304 1.28447C84.4511 1.77401 82.2079 3.20041 80.5924 5.31457C78.9769 7.42872 78.0919 10.0963 78.0919 12.8514C78.0919 15.6065 78.9769 18.274 80.5924 20.3882C82.2079 22.5024 84.4511 23.9288 86.9304 24.4183C89.4097 24.9078 91.9674 24.4294 94.157 23.0666C96.3465 21.7037 98.0287 19.543 98.9098 16.9619H96.6862Z" fill="black"/>
</g>
<defs>
<clipPath id="clip0_206_257">
<rect width="135" height="25" fill="white" transform="translate(0 0.5)"/>
</clipPath>
</defs>
</svg>
