<svg width="60" height="60" viewBox="0 0 60 60" fill="none" xmlns="http://www.w3.org/2000/svg">
<path d="M18.1463 12.8387L15 19.1613V54.3871C15 56.3832 16.5954 58 18.5652 58H52.4348C54.4045 58 56 56.3832 56 54.3871V19.1613L45.3043 2H25.6957L23.9131 4.55611" stroke="#366BAA" stroke-width="3" stroke-miterlimit="10" stroke-linecap="round" stroke-linejoin="round"/>
<path d="M35.5 16C37.433 16 39 14.2091 39 12C39 9.79085 37.433 8 35.5 8C33.567 8 32 9.79085 32 12C32 14.2091 33.567 16 35.5 16Z" stroke="#366BAA" stroke-width="3" stroke-miterlimit="10" stroke-linejoin="round"/>
<path d="M10.2 21C6.44546 19.6942 4 17.5724 4 15.1817C4 11.2164 10.7182 8 19 8C27.2818 8 34 11.2164 34 15.1817" stroke="#366BAA" stroke-width="3" stroke-miterlimit="10" stroke-linecap="round" stroke-linejoin="round"/>
<path d="M24 51C25.7431 44.549 29.94 37.7668 35 34" stroke="#366BAA" stroke-width="3" stroke-miterlimit="10" stroke-linecap="round" stroke-linejoin="round"/>
<path d="M25.0225 45.9105C21.8078 40.205 22.234 34.4908 27.6867 30.135C33.4146 25.56 41.9044 24.4645 49 24C47.7123 24.6311 46.6644 26.8572 46.3359 27.5057C43.947 32.177 46.5134 37.1726 44.4532 41.7826C42.313 46.5678 35.2796 48.9254 30.3508 47.6634" stroke="#366BAA" stroke-width="3" stroke-miterlimit="10" stroke-linecap="round" stroke-linejoin="round"/>
</svg>
