<svg width="60" height="60" viewBox="0 0 60 60" fill="none" xmlns="http://www.w3.org/2000/svg">
<g clip-path="url(#clip0_118_684)">
<path d="M9.14436 15.6754C8.18844 8.43477 12.0886 4.66962 17.6234 3.48396C24.2384 2.07203 30.9299 3.96366 37 6.39834C36.3691 6.38928 35.7286 6.6065 35.1837 6.89612C32.8608 8.12704 31.1593 10.1363 29.8018 12.2633C28.4253 14.4264 27.4503 16.8069 25.2708 18.3998C22.1831 20.6444 17.394 20.3819 14.0291 18.5174" stroke="#366BAA" stroke-width="3" stroke-miterlimit="10" stroke-linecap="round" stroke-linejoin="round"/>
<path d="M52.5 18.5C54.0742 21.7545 55.3488 27.3658 55.5 33C55.895 47.7171 44.6914 58 29.5 58C14.3086 58 2 46.4582 2 32.213C2 21.098 9.5009 11.6191 20.0172 8" stroke="#366BAA" stroke-width="3" stroke-miterlimit="10" stroke-linecap="round" stroke-linejoin="round"/>
<path d="M25 46C23.125 34.5426 10 29.2546 10 29.2546C10 29.2546 17.8 28.012 23.125 31.0173" stroke="#366BAA" stroke-width="3" stroke-miterlimit="10" stroke-linecap="round" stroke-linejoin="round"/>
<path d="M59 3C21.5391 29.2047 25.0902 45.566 25.0902 45.566L33.5677 50C33.5677 50 34.3777 24.1589 59 3Z" stroke="#366BAA" stroke-width="3" stroke-miterlimit="10" stroke-linecap="round" stroke-linejoin="round"/>
</g>
<defs>
<clipPath id="clip0_118_684">
<rect width="60" height="60" fill="white"/>
</clipPath>
</defs>
</svg>
