<svg width="60" height="60" viewBox="0 0 60 60" fill="none" xmlns="http://www.w3.org/2000/svg">
<path d="M32 31.9993C44.5693 32.1033 42.9298 20 42.9298 20C42.9298 20 38.6175 20.232 34.9809 22.3998" stroke="#366BAA" stroke-width="3" stroke-miterlimit="10" stroke-linecap="round" stroke-linejoin="round"/>
<path d="M31.4446 30.3C34.8932 16.8275 21.2657 19.556 18.466 15C18.3177 15.8075 11.9952 31.388 26.8094 32" stroke="#366BAA" stroke-width="3" stroke-miterlimit="10" stroke-linecap="round" stroke-linejoin="round"/>
<path d="M25 25C25 25 34.68 30.25 32.744 39" stroke="#366BAA" stroke-width="3" stroke-miterlimit="10" stroke-linecap="round" stroke-linejoin="round"/>
<path d="M28.0525 2.13062C18.1725 3.18803 10.218 10.8881 9.13375 20.45C8.2738 28.0235 11.6294 34.8922 17.219 39.1399C20.3317 41.5078 22.089 45.159 22.089 48.982V49H38.9139V48.9729C38.9139 45.0957 40.7647 41.4626 43.9053 39.0405C48.8406 35.2357 52 29.3702 52 22.7817C52 10.5266 41.0264 0.747855 28.0525 2.13062Z" stroke="#366BAA" stroke-width="3" stroke-miterlimit="10" stroke-linecap="round" stroke-linejoin="round"/>
<path d="M23 53H38" stroke="#366BAA" stroke-width="3" stroke-miterlimit="10" stroke-linecap="round" stroke-linejoin="round"/>
<path d="M26 57L26.9 58H34.1L35 57" stroke="#366BAA" stroke-width="3" stroke-miterlimit="10" stroke-linecap="round" stroke-linejoin="round"/>
</svg>
