<svg width="22" height="12" viewBox="0 0 22 12" fill="none" xmlns="http://www.w3.org/2000/svg">
<path fill-rule="evenodd" clip-rule="evenodd" d="M19.5823 8.41176C19.5823 8.41176 21.361 10.0878 21.801 10.8634C21.8096 10.8746 21.8163 10.887 21.8208 10.9001C22.0001 11.1866 22.0441 11.4112 21.9561 11.5771C21.8076 11.851 21.3049 11.9885 21.1344 12H17.9906C17.7717 12 17.3163 11.9454 16.7619 11.5802C16.3384 11.2979 15.9171 10.833 15.509 10.3785C14.8996 9.70369 14.3727 9.11807 13.8392 9.11807C13.7718 9.11793 13.7049 9.12858 13.6412 9.14956C13.2375 9.2713 12.7249 9.82019 12.7249 11.2821C12.7249 11.7397 12.3465 12 12.0814 12H10.6415C10.1509 12 7.59671 11.8363 5.3318 9.55781C2.5565 6.76824 0.0638991 1.17229 0.0396991 1.12297C-0.115401 0.760889 0.210199 0.563583 0.5622 0.563583H3.7368C4.1625 0.563583 4.3011 0.809166 4.3979 1.02956C4.5101 1.28249 4.9259 2.29421 5.6079 3.43082C6.71231 5.28004 7.39101 6.03254 7.93331 6.03254C8.03519 6.03282 8.13536 6.00748 8.22371 5.95907C8.93211 5.58755 8.80011 3.17369 8.76711 2.67623C8.76711 2.57967 8.76601 1.59839 8.40301 1.12402C8.14341 0.783978 7.70121 0.65174 7.43391 0.603463C7.50541 0.50481 7.65721 0.353682 7.85191 0.264474C8.33701 0.0335839 9.21371 0 10.0838 0H10.5667C11.5105 0.012594 11.7547 0.0703165 12.0979 0.153227C12.7887 0.310652 12.8019 0.7378 12.7414 2.19241C12.7238 2.60801 12.7051 3.07609 12.7051 3.62708C12.7051 3.74462 12.6996 3.87581 12.6996 4.0091C12.6787 4.75529 12.6512 5.59594 13.2034 5.94123C13.275 5.9838 13.3577 6.00634 13.4421 6.0063C13.6335 6.0063 14.2066 6.0063 15.7609 3.46126C16.4429 2.33724 16.9709 1.01172 17.0072 0.912017C17.038 0.856393 17.1304 0.700017 17.2426 0.637047C17.3224 0.596532 17.4118 0.576292 17.5022 0.578275H21.2367C21.6437 0.578275 21.9198 0.637048 21.9737 0.783978C22.0639 1.02221 21.9561 1.74952 20.2511 3.94927C19.964 4.31555 19.7121 4.6325 19.491 4.90957C17.9455 6.84485 17.9455 6.94245 19.5823 8.41176Z" fill="#1C355E"/>
</svg>
