<svg width="20" height="20" viewBox="0 0 20 20" fill="none" xmlns="http://www.w3.org/2000/svg">
<path d="M18.16 4.84C15.28 0.4 9.39998 -0.92 4.83998 1.84C0.399979 4.6 -1.04002 10.6 1.83998 15.04L2.07998 15.4L1.11998 19L4.71998 18.04L5.07998 18.28C6.63998 19.12 8.31998 19.6 9.99998 19.6C11.8 19.6 13.6 19.12 15.16 18.16C19.6 15.28 20.92 9.4 18.16 4.84ZM15.64 14.08C15.16 14.8 14.56 15.28 13.72 15.4C13.24 15.4 12.64 15.64 10.24 14.68C8.19998 13.72 6.51998 12.16 5.31998 10.36C4.59998 9.52 4.23998 8.44 4.11998 7.36C4.11998 6.4 4.47998 5.56 5.07998 4.96C5.31998 4.72 5.55998 4.6 5.79998 4.6H6.39998C6.63998 4.6 6.87998 4.6 6.99998 5.08C7.23998 5.68 7.83998 7.12 7.83998 7.24C7.95998 7.36 7.95998 7.6 7.83998 7.72C7.95998 7.96 7.83998 8.2 7.71998 8.32C7.59998 8.44 7.47998 8.68 7.35998 8.8C7.11998 8.92 6.99998 9.16 7.11998 9.4C7.59998 10.12 8.19998 10.84 8.79998 11.44C9.51998 12.04 10.24 12.52 11.08 12.88C11.32 13 11.56 13 11.68 12.76C11.8 12.52 12.4 11.92 12.64 11.68C12.88 11.44 13 11.44 13.24 11.56L15.16 12.52C15.4 12.64 15.64 12.76 15.76 12.88C15.88 13.24 15.88 13.72 15.64 14.08Z" />
</svg>
